<svg xmlns="http://www.w3.org/2000/svg" width="90" height="90" viewBox="0 0 90 90" fill="none">
  <g clip-path="url(#clip0_7_184)">
    <path d="M58.8472 37.5002H58.7293V31.2943C58.7293 24.6075 53.289 19.1672 46.6027 19.1672H43.3989C36.7117 19.1672 31.2717 24.6077 31.2717 31.2943V37.5002H31.1538C29.1992 37.5002 27.6145 39.0858 27.6145 41.0404V63.6108C27.6145 65.5658 29.1994 67.151 31.1538 67.151H58.8481C60.8029 67.151 62.3874 65.5658 62.3874 63.6108V41.0404C62.3865 39.0858 60.8016 37.5002 58.8472 37.5002ZM48.5393 55.4568C48.5393 57.4116 46.9546 58.9961 45 58.9961C43.0452 58.9961 41.4608 57.4114 41.4608 55.4568V51.0324C41.4608 49.0776 43.0452 47.4934 45 47.4934C46.9548 47.4934 48.5393 49.0781 48.5393 51.0324V55.4568ZM51.7993 37.5002H38.2008V31.2943C38.2008 28.4285 40.5322 26.0972 43.3983 26.0972H46.602C49.4674 26.0972 51.7993 28.4282 51.7993 31.2943V37.5002Z" fill="black"/>
    <path d="M79.4221 73.9966L79.8158 73.517C86.4783 65.4142 90 55.5529 90 45C90 34.2763 86.3723 24.2885 79.5082 16.1172L79.126 15.6625L79.3323 15.1047C79.7047 14.0983 79.8934 13.0387 79.8934 11.9578C79.8934 6.95272 75.8216 2.8809 70.8169 2.8809C68.9897 2.8809 67.2282 3.42225 65.722 4.44487L65.2318 4.7781L64.6987 4.51867C58.5517 1.5201 51.9239 0 45 0C37.8479 0 31.0277 1.6146 24.7286 4.79947L24.1603 5.08658L23.6518 4.70363C22.0689 3.51113 20.1825 2.88022 18.1962 2.88022C13.1915 2.88022 9.12015 6.95205 9.12015 11.9572C9.12015 13.3047 9.40995 14.6036 9.98167 15.8175L10.2537 16.3955L9.85387 16.8939C3.40762 24.9223 0 34.6419 0 45C0 55.5529 3.5217 65.4142 10.184 73.517L10.5777 73.9966L10.3345 74.5675C9.85567 75.6923 9.61267 76.8875 9.61267 78.1195C9.61267 83.1238 13.6845 87.1956 18.6892 87.1956C20.619 87.1956 22.4627 86.596 24.0217 85.462L24.5221 85.0984L25.0769 85.3726C31.2851 88.443 37.9883 90 45 90C52.0117 90 58.7149 88.443 64.9228 85.3726L65.4777 85.0984L65.9785 85.462C67.5373 86.596 69.3812 87.1956 71.3106 87.1956C76.3153 87.1956 80.3876 83.1238 80.3876 78.1195C80.3876 76.8868 80.1445 75.6923 79.6657 74.5675L79.4221 73.9966ZM75.3835 69.2037L74.934 69.7666L74.2527 69.5338C73.303 69.2084 72.313 69.0424 71.3104 69.0424C66.3061 69.0424 62.2339 73.1144 62.2339 78.1195C62.2339 78.4312 62.2503 78.7468 62.282 79.058L62.3558 79.7744L61.7056 80.0856C56.4606 82.5932 50.8403 83.8636 44.9998 83.8636C39.1592 83.8636 33.5385 82.5932 28.294 80.0856L27.6437 79.7744L27.7178 79.058C27.7495 78.7468 27.7659 78.4312 27.7659 78.1195C27.7659 73.1144 23.6941 69.0424 18.6894 69.0424C17.6868 69.0424 16.697 69.2077 15.7471 69.5338L15.0658 69.7666L14.6162 69.2037C9.06862 62.2541 6.13643 53.8839 6.13643 45C6.13643 36.2041 9.01485 27.9009 14.4605 20.9893L14.8925 20.4408L15.5605 20.6431C16.4146 20.9021 17.3014 21.0332 18.1962 21.0332C23.2009 21.0332 27.2727 16.9614 27.2727 11.9572C27.2727 11.7088 27.2608 11.4475 27.2353 11.1604L27.1753 10.4654L27.8003 10.1554C33.1825 7.48845 38.9693 6.1362 44.9998 6.1362C50.6592 6.1362 56.1222 7.33387 61.2371 9.69525L61.9211 10.0107L61.8226 10.7572C61.7688 11.167 61.7413 11.5704 61.7413 11.9569C61.7413 16.9612 65.8132 21.033 70.8176 21.033C71.9617 21.033 73.0809 20.8204 74.1442 20.4012L74.8451 20.1245L75.3169 20.7119C80.8288 27.5787 83.8636 36.2041 83.8636 44.9993C83.8636 53.8839 80.9314 62.2543 75.3835 69.2037Z" fill="black"/>
  </g>
  <defs>
    <clipPath id="clip0_7_184">
      <rect width="90" height="90" fill="white"/>
    </clipPath>
  </defs>
</svg>