<svg xmlns="http://www.w3.org/2000/svg" width="84" height="84" viewBox="0 0 84 84" fill="none">
  <path d="M70 42.1752C69.9346 36.8395 68.3456 31.6335 65.4203 27.1705C62.495 22.7075 58.3555 19.1733 53.4891 16.9842C48.6224 14.7951 43.2317 14.0421 37.9516 14.8141C32.6716 15.586 27.722 17.8507 23.6859 21.3414C19.6498 24.8321 16.6952 29.4034 15.1701 34.517C13.645 39.6307 13.6128 45.0736 15.0775 50.2049C16.5422 55.3363 19.4426 59.9419 23.4373 63.4801C27.4319 67.0182 32.3544 69.3411 37.625 70.1752V50.3302H30.625V42.1752H37.625V35.9802C37.463 34.5398 37.6191 33.0813 38.0825 31.7078C38.5459 30.3343 39.305 29.0792 40.3064 28.0311C41.3077 26.983 42.5268 26.1674 43.8778 25.642C45.2288 25.1166 46.6788 24.8941 48.125 24.9903C50.2243 25.019 52.3187 25.2063 54.39 25.5503V32.5503H50.89C50.2866 32.4742 49.6734 32.5347 49.0966 32.7273C48.5195 32.9199 47.9931 33.2397 47.5563 33.663C47.1195 34.0864 46.7835 34.6025 46.5731 35.1731C46.3624 35.744 46.283 36.3547 46.34 36.9602V42.2452H54.11L52.85 50.4002H46.375V70.0002C52.9897 68.9541 59.0104 65.5717 63.3447 60.4666C67.6791 55.3615 70.0403 48.8721 70 42.1752Z" fill="black"/>
</svg>