<svg width="500" height="500" viewBox="0 0 500 500" fill="none" xmlns="http://www.w3.org/2000/svg">
<path opacity="0.7" d="M408.57 411.5C320.99 455.37 179.01 455.37 91.43 411.5C3.84998 367.63 3.85995 296.5 91.43 252.63C179 208.76 320.99 208.76 408.57 252.63C496.15 296.5 496.14 367.63 408.57 411.5Z" fill="#F5F5F5"/>
<path d="M98.14 261.19L133.27 240.91V165.58L98.14 185.87V261.19Z" fill="#E0E0E0"/>
<path d="M98.1401 185.87L47.9601 156.89V232.22L98.1401 261.19V185.87Z" fill="#EBEBEB"/>
<path d="M47.96 156.89L98.14 185.87L133.27 165.58L83.09 136.61L47.96 156.89Z" fill="#F5F5F5"/>
<path d="M93.1301 188.76L52.9801 165.58L52.0601 166.12V194.02L92.2001 217.2L93.1301 216.66V188.76Z" fill="#E6E6E6"/>
<path d="M76.4701 184.94L69.6401 181C68.7501 180.49 68.0401 180.72 68.0401 181.52C68.104 182.012 68.2819 182.483 68.5596 182.894C68.8374 183.306 69.2074 183.647 69.6401 183.89L76.4701 187.89C77.3501 188.4 78.0701 188.16 78.0701 187.36C78.0121 186.859 77.837 186.379 77.5591 185.959C77.2811 185.539 76.908 185.189 76.4701 184.94Z" fill="#E6E6E6"/>
<path d="M94.05 224.07L53.9001 200.89L53.9101 228.79L52.9801 229.32L93.1301 252.5L94.05 251.97V224.07Z" fill="#E0E0E0"/>
<path d="M93.1301 224.6L52.9801 201.42V229.32L93.1301 252.5V224.6Z" fill="#F5F5F5"/>
<path d="M77.39 220.24L70.56 216.3C69.68 215.79 68.96 216.02 68.96 216.82C69.0254 217.313 69.2039 217.784 69.4814 218.197C69.7589 218.61 70.128 218.953 70.56 219.2L77.39 223.14C78.28 223.65 79 223.42 79 222.62C78.9335 222.126 78.7536 221.654 78.4742 221.241C78.1949 220.828 77.8238 220.486 77.39 220.24Z" fill="#E6E6E6"/>
<path d="M93.1301 188.76L52.9801 165.58V193.49L93.1301 216.66V188.76Z" fill="#E0E0E0"/>
<path d="M32.9101 179.37L54.8801 166.68V191.26L32.9101 203.95V179.37Z" fill="#E6E6E6"/>
<path d="M78.0701 220.63V185.86L69.4601 180.87L68.0401 182.97L42.9401 168.48V200.35L78.0701 220.63Z" fill="#EBEBEB"/>
<path d="M78.0701 220.63L75.5601 190.21L40.4401 169.93L42.9401 200.35L78.0701 220.63Z" fill="#FAFAFA"/>
<path d="M73.05 202.55L92.21 191.49V216.07L73.06 227.13L73.05 202.55Z" fill="#E6E6E6"/>
<path d="M73.05 200.35L32.9101 177.17V205.07L73.0601 228.25L73.05 200.35Z" fill="#F5F5F5"/>
<path d="M57.3199 196L50.4899 192.06C49.6099 191.55 48.8899 191.78 48.8899 192.58C48.9553 193.073 49.1338 193.544 49.4113 193.957C49.6888 194.37 50.0579 194.713 50.4899 194.96L57.3199 198.9C58.2099 199.41 58.9199 199.18 58.9199 198.38C58.8545 197.887 58.6761 197.415 58.3985 197.003C58.121 196.59 57.7519 196.247 57.3199 196Z" fill="#E6E6E6"/>
<path d="M73.0501 200.35L74.3901 199.58V227.48L73.0501 228.25V200.35Z" fill="#E0E0E0"/>
<path d="M74.3901 199.58L34.2501 176.4L32.9101 177.17L73.0501 200.35L74.3901 199.58Z" fill="#F0F0F0"/>
<path d="M121.37 267.25C121.13 261.48 116.58 249.31 110.29 242.05C104 234.79 94.1201 230.22 87.5101 232.78C81.3701 235.17 82.3701 243.32 90.1501 248.43C97.9301 253.54 109.58 259.9 113.28 269.13L120.72 280.35L121.37 267.25Z" fill="#00BCFF"/>
<path opacity="0.1" d="M121.37 267.25C121.13 261.48 116.58 249.31 110.29 242.05C104 234.79 94.1201 230.22 87.5101 232.78C81.3701 235.17 82.3701 243.32 90.1501 248.43C97.9301 253.54 109.58 259.9 113.28 269.13L120.72 280.35L121.37 267.25Z" fill="black"/>
<path d="M89.9502 235.6C97.4302 237.34 118.95 252.43 120.95 274.02" stroke="white" stroke-width="1.02594" stroke-miterlimit="10" stroke-linecap="round"/>
<path d="M119.47 290.18C119.12 284.18 114.01 279.86 107.28 275.91C99.2802 271.23 92.3802 269.12 89.9502 264.51C87.5202 259.9 91.8702 254.69 100.12 257.44C107.12 259.77 120.63 271.76 120.72 280.35L119.47 290.18Z" fill="#00BCFF"/>
<path d="M95.1702 261.1C106.22 263.63 118.57 273.68 120.23 284.21" stroke="white" stroke-miterlimit="10" stroke-linecap="round"/>
<path d="M428.46 199.13V372.92L250.59 270.22V112.23L382.85 188.59L387.42 175.43L428.46 199.13Z" fill="#263238"/>
<path d="M428.46 372.92L419.34 214.92L241.47 112.23L250.59 270.22L428.46 372.92Z" fill="white"/>
<path d="M428.46 372.92L414.78 217.56L236.91 114.86L250.59 270.22L428.46 372.92Z" fill="#37474F"/>
<path d="M380.94 232.89V406.68L203.06 303.98V145.99L335.33 222.35L339.89 209.19L380.94 232.89Z" fill="#00BCFF"/>
<g opacity="0.1">
<path d="M380.94 232.89V406.68L203.06 303.98V145.99L335.33 222.35L339.89 209.19L380.94 232.89Z" fill="black"/>
</g>
<path d="M316.34 346C316.889 345.63 317.343 345.136 317.664 344.557C317.986 343.978 318.166 343.332 318.19 342.67V125.84C318.15 125.155 317.948 124.49 317.601 123.898C317.253 123.307 316.769 122.807 316.19 122.44L180.07 43.83C179.502 43.4733 178.847 43.2781 178.177 43.2655C177.506 43.253 176.844 43.4235 176.263 43.7588C175.682 44.094 175.204 44.5813 174.879 45.1683C174.554 45.7552 174.395 46.4196 174.42 47.09V263.9C174.461 264.584 174.664 265.249 175.011 265.84C175.359 266.431 175.842 266.932 176.42 267.3L312.53 345.9C313.112 346.216 313.761 346.39 314.423 346.407C315.085 346.424 315.742 346.285 316.34 346Z" fill="#EBEBEB"/>
<path d="M314.5 130L259.21 93.8201L262.89 91.7001L316.22 122.49C316.799 122.857 317.283 123.357 317.631 123.948C317.978 124.54 318.18 125.205 318.22 125.89V127.89L314.5 130Z" fill="#EBEBEB"/>
<path d="M296.07 136.34L317.61 123.9C317.966 124.486 318.166 125.154 318.19 125.84V342.64C318.214 343.31 318.056 343.975 317.731 344.562C317.406 345.149 316.928 345.636 316.347 345.971C315.765 346.307 315.104 346.477 314.433 346.465C313.763 346.452 313.108 346.257 312.54 345.9L296.07 336.4V136.34Z" fill="#E0E0E0"/>
<path d="M312.53 345.9L176.39 267.3C175.812 266.932 175.329 266.431 174.981 265.84C174.634 265.249 174.431 264.584 174.39 263.9V47.0901C174.39 45.8401 175.27 45.3301 176.39 45.9601L312.54 124.56C313.118 124.931 313.601 125.433 313.949 126.025C314.296 126.618 314.499 127.284 314.54 127.97V344.77C314.5 346 313.62 346.53 312.53 345.9Z" fill="#E6E6E6"/>
<path d="M303.2 178L270.51 159.13C268.34 157.88 266.58 158.77 266.58 161.13C266.676 162.449 267.082 163.727 267.765 164.86C268.448 165.993 269.388 166.949 270.51 167.65L303.2 186.56C305.37 187.81 307.13 186.92 307.13 184.56C307.037 183.235 306.632 181.95 305.949 180.81C305.267 179.67 304.325 178.707 303.2 178Z" fill="#F5F5F5"/>
<path d="M305.56 212.55L301.33 210.11C300.46 209.61 299.76 210.01 299.76 211.01V215.9C299.788 216.445 299.946 216.976 300.218 217.448C300.491 217.921 300.872 218.323 301.33 218.62L305.56 221.06C306.42 221.56 307.13 221.16 307.13 220.15V215.27C307.099 214.726 306.941 214.196 306.668 213.723C306.395 213.251 306.016 212.849 305.56 212.55Z" fill="#FAFAFA"/>
<path d="M294.1 208.07L268.54 193.31C267.46 192.68 266.54 193.13 266.54 194.31C266.592 194.973 266.8 195.614 267.147 196.181C267.495 196.748 267.972 197.224 268.54 197.57L294.1 212.32C295.19 212.95 296.1 212.5 296.1 211.32C296.049 210.658 295.84 210.019 295.493 209.453C295.145 208.888 294.668 208.414 294.1 208.07Z" fill="#F5F5F5"/>
<path d="M305.56 229.58L301.33 227.13C300.46 226.63 299.76 227.04 299.76 228.04V232.93C299.788 233.475 299.946 234.006 300.218 234.478C300.491 234.951 300.872 235.353 301.33 235.65L305.56 238.09C306.42 238.59 307.13 238.18 307.13 237.18V232.3C307.099 231.756 306.941 231.226 306.668 230.753C306.395 230.281 306.016 229.879 305.56 229.58Z" fill="#FAFAFA"/>
<path d="M294.1 225.09L268.54 210.34C267.46 209.71 266.54 210.15 266.54 211.34C266.593 212.003 266.802 212.643 267.15 213.21C267.497 213.776 267.974 214.253 268.54 214.6L294.1 229.35C295.19 229.98 296.1 229.53 296.1 228.35C296.047 227.688 295.838 227.047 295.491 226.48C295.143 225.914 294.667 225.438 294.1 225.09Z" fill="#F5F5F5"/>
<path d="M305.56 246.6L301.33 244.16C300.46 243.66 299.76 244.06 299.76 245.07V250C299.788 250.545 299.946 251.076 300.218 251.548C300.491 252.021 300.872 252.423 301.33 252.72L305.56 255.16C306.42 255.67 307.13 255.26 307.13 254.26V249.37C307.107 248.817 306.952 248.277 306.679 247.796C306.406 247.314 306.023 246.904 305.56 246.6Z" fill="#FAFAFA"/>
<path d="M294.1 242.12L268.54 227.36C267.46 226.73 266.54 227.18 266.54 228.36C266.592 229.024 266.801 229.666 267.148 230.235C267.496 230.803 267.973 231.281 268.54 231.63L294.1 246.37C295.19 247 296.1 246.56 296.1 245.37C296.049 244.708 295.84 244.069 295.493 243.504C295.145 242.938 294.668 242.464 294.1 242.12Z" fill="#F5F5F5"/>
<path d="M305.56 263.67L301.33 261.23C300.46 260.73 299.76 261.14 299.76 262.14V267C299.788 267.545 299.946 268.076 300.218 268.548C300.491 269.021 300.872 269.423 301.33 269.72L305.56 272.16C306.42 272.67 307.13 272.26 307.13 271.26V266.37C307.096 265.829 306.936 265.303 306.664 264.835C306.391 264.366 306.013 263.967 305.56 263.67Z" fill="#FAFAFA"/>
<path d="M294.1 259.19L268.54 244.43C267.46 243.8 266.54 244.25 266.54 245.43C266.592 246.094 266.801 246.736 267.148 247.305C267.496 247.873 267.973 248.351 268.54 248.7L294.1 263.44C295.19 264.07 296.1 263.63 296.1 262.44C296.047 261.779 295.838 261.14 295.491 260.575C295.143 260.01 294.666 259.535 294.1 259.19Z" fill="#F5F5F5"/>
<path d="M305.16 299.27L287 288.77C285.92 288.14 285 288.59 285 289.77C285.051 290.433 285.26 291.074 285.607 291.641C285.955 292.208 286.432 292.684 287 293.03L305.19 303.54C306.28 304.16 307.19 303.72 307.19 302.54C307.135 301.873 306.922 301.229 306.569 300.66C306.216 300.092 305.733 299.615 305.16 299.27Z" fill="#F5F5F5"/>
<path d="M305.16 307.78L268.54 286.64C267.46 286.01 266.54 286.46 266.54 287.64C266.592 288.304 266.801 288.946 267.148 289.515C267.496 290.083 267.973 290.561 268.54 290.91L305.16 312C306.25 312.63 307.16 312.18 307.16 311C307.101 310.344 306.889 309.712 306.542 309.153C306.195 308.594 305.721 308.124 305.16 307.78Z" fill="#F0F0F0"/>
<path d="M305.16 307.78L279.6 293C278.52 292.38 277.6 292.82 277.6 294C277.653 294.663 277.862 295.303 278.209 295.87C278.557 296.436 279.033 296.913 279.6 297.26L305.16 312C306.25 312.63 307.16 312.18 307.16 311C307.101 310.345 306.889 309.712 306.542 309.153C306.195 308.594 305.721 308.124 305.16 307.78Z" fill="#FAFAFA"/>
<path d="M305.16 316.29L287 305.78C285.92 305.16 285 305.6 285 306.78C285.054 307.442 285.263 308.083 285.61 308.649C285.958 309.215 286.434 309.692 287 310.04L305.19 320.54C306.28 321.17 307.19 320.72 307.19 319.54C307.135 318.876 306.922 318.234 306.569 317.669C306.216 317.103 305.733 316.631 305.16 316.29Z" fill="#F5F5F5"/>
<path d="M305.16 282.25L287 271.75C285.92 271.13 285 271.57 285 272.75C285.054 273.412 285.263 274.053 285.61 274.619C285.958 275.185 286.434 275.662 287 276.01L305.19 286.51C306.28 287.14 307.19 286.69 307.19 285.51C307.134 284.845 306.92 284.202 306.567 283.636C306.214 283.069 305.732 282.594 305.16 282.25Z" fill="#F5F5F5"/>
<path d="M305.16 290.77L268.54 269.62C267.46 269 266.54 269.44 266.54 270.62C266.594 271.282 266.803 271.923 267.15 272.489C267.498 273.055 267.974 273.532 268.54 273.88L305.16 295C306.25 295.63 307.16 295.18 307.16 294C307.105 293.342 306.896 292.706 306.548 292.145C306.2 291.583 305.725 291.112 305.16 290.77Z" fill="#F0F0F0"/>
<path d="M305.16 290.77L292.16 283.27C291.07 282.64 290.16 283.09 290.16 284.27C290.211 284.934 290.42 285.577 290.767 286.145C291.115 286.714 291.592 287.192 292.16 287.54L305.16 295.03C306.25 295.66 307.16 295.21 307.16 294.03C307.11 293.367 306.902 292.725 306.555 292.158C306.207 291.591 305.729 291.115 305.16 290.77Z" fill="#FAFAFA"/>
<path d="M305.16 324.8L268.54 303.66C267.46 303.03 266.54 303.48 266.54 304.66C266.591 305.323 266.8 305.964 267.147 306.531C267.495 307.098 267.972 307.574 268.54 307.92L305.16 329.07C306.25 329.69 307.16 329.25 307.16 328.07C307.108 327.406 306.9 326.763 306.553 326.195C306.205 325.626 305.728 325.148 305.16 324.8Z" fill="#F0F0F0"/>
<path d="M305.16 324.8L272.23 305.8C271.14 305.18 270.23 305.62 270.23 306.8C270.285 307.462 270.495 308.102 270.842 308.668C271.19 309.234 271.665 309.711 272.23 310.06L305.16 329.06C306.25 329.68 307.16 329.24 307.16 328.06C307.107 327.398 306.898 326.757 306.55 326.191C306.203 325.624 305.726 325.148 305.16 324.8Z" fill="#FAFAFA"/>
<path d="M176.39 46L259.21 93.77V315.11L176.39 267.3C175.812 266.932 175.329 266.431 174.981 265.84C174.634 265.249 174.431 264.584 174.39 263.9V47.09C174.42 45.84 175.3 45.33 176.39 46Z" fill="#F5F5F5"/>
<path d="M259.21 102.29V119.31L266.58 127.83H259.21V144.85L181.8 100.16V57.5901L259.21 102.29Z" fill="#EBEBEB"/>
<path d="M249.08 102.88L217.72 84.77C216.2 83.9 214.97 84.61 214.97 86.36C215.021 87.3154 215.296 88.2453 215.774 89.0741C216.252 89.903 216.919 90.6073 217.72 91.13L249.08 109.23C250.6 110.11 251.83 109.4 251.83 107.65C251.779 106.695 251.504 105.765 251.026 104.936C250.548 104.107 249.881 103.403 249.08 102.88Z" fill="#FAFAFA"/>
<path d="M250.85 116.62L190.15 81.57C189.61 81.26 189.15 81.48 189.15 82.07C189.176 82.4014 189.28 82.722 189.454 83.0054C189.628 83.2888 189.866 83.5268 190.15 83.7L250.85 118.75C251.39 119.06 251.85 118.84 251.85 118.25C251.824 117.919 251.72 117.598 251.546 117.315C251.373 117.031 251.134 116.793 250.85 116.62Z" fill="#FAFAFA"/>
<path d="M250.85 123L190.15 88C189.61 87.68 189.15 87.91 189.15 88.49C189.177 88.8226 189.281 89.1442 189.455 89.4291C189.628 89.714 189.867 89.954 190.15 90.13L250.85 125.13C251.39 125.44 251.85 125.22 251.85 124.63C251.822 124.299 251.717 123.979 251.543 123.696C251.37 123.413 251.132 123.175 250.85 123Z" fill="#FAFAFA"/>
<path d="M250.85 129.39L190.15 94.39C189.61 94.08 189.15 94.3 189.15 94.89C189.176 95.2215 189.28 95.5421 189.454 95.8255C189.628 96.1088 189.866 96.3469 190.15 96.52L250.85 131.57C251.39 131.88 251.85 131.66 251.85 131.07C251.832 130.73 251.732 130.399 251.558 130.107C251.383 129.814 251.141 129.568 250.85 129.39Z" fill="#FAFAFA"/>
<path d="M248.57 147.24L244.34 144.8C243.47 144.3 242.76 144.7 242.76 145.71V150.59C242.791 151.136 242.951 151.666 243.225 152.139C243.5 152.611 243.881 153.012 244.34 153.31L248.57 155.75C249.43 156.25 250.14 155.85 250.14 154.85V150C250.115 149.449 249.96 148.911 249.687 148.431C249.414 147.951 249.031 147.543 248.57 147.24Z" fill="white"/>
<path d="M237.11 142.76L211.55 128C210.47 127.37 209.55 127.82 209.55 129C209.602 129.664 209.811 130.306 210.158 130.875C210.506 131.443 210.983 131.921 211.55 132.27L237.11 147C238.2 147.63 239.11 147.19 239.11 146C239.057 145.34 238.848 144.702 238.5 144.139C238.153 143.576 237.676 143.103 237.11 142.76Z" fill="#E0E0E0"/>
<path d="M249.15 162.49L184.77 125.31C184.22 124.99 183.77 125.22 183.77 125.8C183.794 126.132 183.897 126.453 184.071 126.737C184.245 127.02 184.485 127.258 184.77 127.43L249.15 164.62C249.7 164.93 250.15 164.71 250.15 164.12C250.126 163.788 250.022 163.467 249.848 163.183C249.674 162.9 249.435 162.662 249.15 162.49Z" fill="#E0E0E0"/>
<path d="M249.15 168.87L184.77 131.69C184.22 131.38 183.77 131.6 183.77 132.19C183.794 132.522 183.897 132.843 184.071 133.127C184.245 133.41 184.485 133.648 184.77 133.82L249.15 171C249.7 171.31 250.15 171.09 250.15 170.5C250.123 170.169 250.018 169.849 249.844 169.566C249.67 169.283 249.433 169.044 249.15 168.87Z" fill="#E0E0E0"/>
<path d="M249.15 175.26L184.77 138.08C184.22 137.76 183.77 137.98 183.77 138.57C183.794 138.902 183.897 139.223 184.071 139.507C184.245 139.79 184.485 140.028 184.77 140.2L249.15 177.38C249.7 177.7 250.15 177.48 250.15 176.89C250.126 176.558 250.022 176.237 249.848 175.953C249.674 175.67 249.435 175.432 249.15 175.26Z" fill="#E0E0E0"/>
<path d="M249.15 181.66L184.77 144.48C184.22 144.16 183.77 144.39 183.77 144.98C183.797 145.311 183.902 145.631 184.076 145.914C184.249 146.197 184.487 146.436 184.77 146.61L249.15 183.79C249.7 184.1 250.15 183.88 250.15 183.29C250.126 182.958 250.022 182.637 249.848 182.353C249.674 182.07 249.435 181.832 249.15 181.66Z" fill="#E0E0E0"/>
<path d="M248.57 194.06L244.34 191.62C243.47 191.12 242.76 191.53 242.76 192.53V197.41C242.791 197.956 242.951 198.486 243.225 198.959C243.5 199.431 243.881 199.833 244.34 200.13L248.57 202.58C249.43 203.08 250.14 202.67 250.14 201.67V196.79C250.11 196.244 249.953 195.712 249.68 195.238C249.408 194.764 249.027 194.36 248.57 194.06Z" fill="white"/>
<path d="M237.11 189.58L211.55 174.82C210.47 174.2 209.55 174.64 209.55 175.82C209.604 176.482 209.813 177.123 210.16 177.689C210.508 178.255 210.984 178.732 211.55 179.08L237.11 193.84C238.2 194.46 239.11 194.02 239.11 192.84C239.057 192.177 238.848 191.537 238.5 190.97C238.153 190.404 237.676 189.927 237.11 189.58Z" fill="#E0E0E0"/>
<path d="M249.15 209.31L184.77 172.13C184.22 171.82 183.77 172.04 183.77 172.63C183.797 172.961 183.902 173.281 184.076 173.564C184.249 173.847 184.487 174.086 184.77 174.26L249.15 211.44C249.7 211.75 250.15 211.53 250.15 210.94C250.126 210.608 250.022 210.287 249.848 210.003C249.674 209.72 249.435 209.482 249.15 209.31Z" fill="#E0E0E0"/>
<path d="M249.15 215.69L184.77 178.51C184.22 178.2 183.77 178.42 183.77 179.01C183.794 179.342 183.897 179.663 184.071 179.947C184.245 180.23 184.485 180.468 184.77 180.64L249.15 217.82C249.7 218.14 250.15 217.91 250.15 217.33C250.124 216.997 250.02 216.675 249.846 216.39C249.673 216.105 249.434 215.865 249.15 215.69Z" fill="#E0E0E0"/>
<path d="M249.15 222.08L184.77 184.9C184.22 184.58 183.77 184.81 183.77 185.39C183.796 185.723 183.9 186.045 184.074 186.33C184.247 186.615 184.486 186.855 184.77 187.03L249.15 224.21C249.7 224.52 250.15 224.3 250.15 223.71C250.126 223.378 250.022 223.057 249.848 222.773C249.674 222.49 249.435 222.252 249.15 222.08Z" fill="#E0E0E0"/>
<path d="M249.15 228.48L184.77 191.3C184.22 190.99 183.77 191.21 183.77 191.8C183.794 192.132 183.897 192.453 184.071 192.737C184.245 193.02 184.485 193.258 184.77 193.43L249.15 230.61C249.7 230.92 250.15 230.7 250.15 230.11C250.123 229.779 250.018 229.459 249.844 229.176C249.67 228.893 249.433 228.654 249.15 228.48Z" fill="#E0E0E0"/>
<path d="M242.54 237.82L238.32 235.38C237.45 234.87 236.74 235.28 236.74 236.28V241.17C236.771 241.716 236.931 242.246 237.205 242.719C237.48 243.191 237.861 243.593 238.32 243.89L242.54 246.33C243.41 246.83 244.12 246.43 244.12 245.42V240.54C244.089 239.994 243.929 239.464 243.655 238.991C243.38 238.519 242.998 238.118 242.54 237.82Z" fill="white"/>
<path d="M249.15 254.41L231.7 244.33C231.16 244.02 230.7 244.24 230.7 244.83C230.726 245.161 230.83 245.482 231.004 245.765C231.177 246.049 231.416 246.287 231.7 246.46L249.15 256.53C249.7 256.85 250.15 256.62 250.15 256.04C250.126 255.708 250.022 255.387 249.848 255.103C249.674 254.82 249.435 254.582 249.15 254.41Z" fill="#E0E0E0"/>
<path d="M219.07 224.26L214.85 221.82C213.98 221.31 213.27 221.72 213.27 222.72V227.61C213.301 228.156 213.461 228.686 213.735 229.159C214.01 229.631 214.391 230.033 214.85 230.33L219.07 232.77C219.94 233.27 220.65 232.86 220.65 231.86V227C220.622 226.451 220.464 225.916 220.189 225.44C219.915 224.964 219.531 224.559 219.07 224.26Z" fill="white"/>
<path d="M225.68 240.84L208.23 230.77C207.69 230.46 207.23 230.68 207.23 231.27C207.256 231.601 207.36 231.922 207.534 232.205C207.707 232.489 207.946 232.727 208.23 232.9L225.68 243C226.23 243.32 226.68 243.09 226.68 242.51C226.659 242.172 226.557 241.844 226.383 241.553C226.209 241.263 225.968 241.018 225.68 240.84Z" fill="#E0E0E0"/>
<path d="M195.6 210.7L191.38 208.25C190.51 207.75 189.8 208.16 189.8 209.16V214C189.83 214.547 189.988 215.08 190.263 215.554C190.537 216.029 190.92 216.432 191.38 216.73L195.6 219.17C196.47 219.67 197.18 219.26 197.18 218.26V213.38C197.143 212.841 196.98 212.319 196.706 211.854C196.432 211.389 196.053 210.994 195.6 210.7Z" fill="white"/>
<path d="M202.22 227.28L184.77 217.21C184.22 216.9 183.77 217.12 183.77 217.71C183.794 218.042 183.898 218.363 184.072 218.647C184.246 218.93 184.485 219.168 184.77 219.34L202.22 229.41C202.76 229.73 203.22 229.5 203.22 228.91C203.192 228.579 203.087 228.259 202.913 227.976C202.74 227.693 202.502 227.455 202.22 227.28Z" fill="#E0E0E0"/>
<path d="M249.15 258.56L231.7 248.49C231.16 248.18 230.7 248.4 230.7 248.99C230.728 249.321 230.833 249.641 231.007 249.924C231.18 250.207 231.418 250.445 231.7 250.62L249.15 260.69C249.7 261 250.15 260.78 250.15 260.19C250.124 259.859 250.02 259.538 249.846 259.255C249.672 258.971 249.434 258.733 249.15 258.56Z" fill="#E0E0E0"/>
<path d="M225.68 245L208.23 234.93C207.69 234.61 207.23 234.84 207.23 235.42C207.257 235.753 207.361 236.074 207.535 236.359C207.708 236.644 207.946 236.884 208.23 237.06L225.68 247.13C226.23 247.44 226.68 247.22 226.68 246.63C226.656 246.298 226.552 245.977 226.378 245.693C226.204 245.41 225.965 245.172 225.68 245Z" fill="#E0E0E0"/>
<path d="M202.22 231.44L184.77 221.37C184.22 221.05 183.77 221.28 183.77 221.86C183.796 222.193 183.9 222.515 184.074 222.8C184.247 223.085 184.486 223.325 184.77 223.5L202.22 233.57C202.76 233.88 203.22 233.66 203.22 233.07C203.194 232.739 203.09 232.418 202.916 232.135C202.742 231.851 202.504 231.613 202.22 231.44Z" fill="#E0E0E0"/>
<path d="M249.15 262.72L231.7 252.64C231.16 252.33 230.7 252.55 230.7 253.14C230.726 253.471 230.83 253.792 231.004 254.075C231.177 254.359 231.416 254.597 231.7 254.77L249.15 264.85C249.7 265.16 250.15 264.94 250.15 264.35C250.126 264.018 250.022 263.697 249.848 263.413C249.674 263.13 249.435 262.892 249.15 262.72Z" fill="#E0E0E0"/>
<path d="M225.68 249.16L208.23 239.08C207.69 238.77 207.23 238.99 207.23 239.58C207.256 239.911 207.36 240.232 207.534 240.515C207.707 240.799 207.946 241.037 208.23 241.21L225.68 251.29C226.23 251.6 226.68 251.38 226.68 250.79C226.656 250.458 226.552 250.137 226.378 249.853C226.204 249.57 225.965 249.332 225.68 249.16Z" fill="#E0E0E0"/>
<path d="M202.22 235.6L184.77 225.52C184.22 225.21 183.77 225.43 183.77 226.02C183.794 226.352 183.898 226.673 184.072 226.957C184.246 227.24 184.485 227.478 184.77 227.65L202.22 237.72C202.76 238.04 203.22 237.82 203.22 237.23C203.194 236.899 203.09 236.578 202.916 236.295C202.742 236.011 202.504 235.773 202.22 235.6Z" fill="#E0E0E0"/>
<path d="M242.54 272.77L238.32 270.33C237.45 269.83 236.74 270.24 236.74 271.24V276.12C236.771 276.666 236.931 277.196 237.205 277.669C237.48 278.141 237.861 278.543 238.32 278.84L242.54 281.28C243.41 281.79 244.12 281.38 244.12 280.38V275.49C244.089 274.944 243.929 274.414 243.655 273.941C243.38 273.469 242.998 273.068 242.54 272.77Z" fill="white"/>
<path d="M249.15 289.36L231.7 279.29C231.16 278.97 230.7 279.2 230.7 279.78C230.726 280.111 230.83 280.432 231.004 280.715C231.177 280.999 231.416 281.237 231.7 281.41L249.15 291.49C249.7 291.8 250.15 291.58 250.15 290.99C250.126 290.658 250.022 290.337 249.848 290.053C249.674 289.77 249.435 289.532 249.15 289.36Z" fill="#E0E0E0"/>
<path d="M219.07 259.21L214.85 256.77C213.98 256.27 213.27 256.67 213.27 257.68V262.56C213.301 263.106 213.461 263.636 213.735 264.109C214.01 264.581 214.391 264.983 214.85 265.28L219.07 267.72C219.94 268.23 220.65 267.82 220.65 266.82V261.93C220.619 261.384 220.459 260.854 220.185 260.381C219.91 259.909 219.528 259.508 219.07 259.21Z" fill="white"/>
<path d="M225.68 275.8L208.23 265.73C207.69 265.41 207.23 265.63 207.23 266.22C207.256 266.551 207.36 266.872 207.534 267.155C207.707 267.439 207.946 267.677 208.23 267.85L225.68 277.93C226.23 278.24 226.68 278.02 226.68 277.43C226.656 277.098 226.552 276.777 226.378 276.493C226.204 276.21 225.965 275.972 225.68 275.8Z" fill="#E0E0E0"/>
<path d="M195.6 245.65L191.38 243.21C190.51 242.71 189.8 243.11 189.8 244.12V249C189.831 249.546 189.991 250.076 190.265 250.549C190.54 251.021 190.922 251.423 191.38 251.72L195.6 254.16C196.47 254.66 197.18 254.26 197.18 253.26V248.37C197.149 247.824 196.989 247.294 196.715 246.821C196.44 246.349 196.058 245.947 195.6 245.65Z" fill="white"/>
<path d="M202.22 262.24L184.77 252.16C184.22 251.85 183.77 252.07 183.77 252.66C183.794 252.992 183.898 253.313 184.072 253.597C184.246 253.88 184.485 254.118 184.77 254.29L202.22 264.37C202.76 264.68 203.22 264.46 203.22 263.87C203.194 263.539 203.09 263.218 202.916 262.935C202.742 262.651 202.504 262.413 202.22 262.24Z" fill="#E0E0E0"/>
<path d="M249.15 293.52L231.7 283.44C231.16 283.13 230.7 283.35 230.7 283.94C230.726 284.272 230.83 284.592 231.004 284.876C231.177 285.159 231.416 285.397 231.7 285.57L249.15 295.64C249.7 295.96 250.15 295.73 250.15 295.15C250.126 294.818 250.022 294.497 249.848 294.213C249.674 293.93 249.435 293.692 249.15 293.52Z" fill="#E0E0E0"/>
<path d="M225.68 280L208.23 269.93C207.69 269.62 207.23 269.84 207.23 270.43C207.256 270.762 207.36 271.082 207.534 271.366C207.707 271.649 207.946 271.887 208.23 272.06L225.68 282.13C226.23 282.45 226.68 282.22 226.68 281.64C226.654 281.307 226.55 280.985 226.376 280.7C226.203 280.415 225.964 280.175 225.68 280Z" fill="#E0E0E0"/>
<path d="M202.22 266.39L184.77 256.32C184.22 256.01 183.77 256.23 183.77 256.82C183.794 257.152 183.898 257.473 184.072 257.757C184.246 258.04 184.485 258.278 184.77 258.45L202.22 268.52C202.76 268.84 203.22 268.61 203.22 268.03C203.193 267.697 203.089 267.376 202.915 267.091C202.742 266.806 202.503 266.566 202.22 266.39Z" fill="#E0E0E0"/>
<path d="M249.15 297.67L231.7 287.6C231.16 287.29 230.7 287.51 230.7 288.1C230.728 288.431 230.833 288.751 231.007 289.034C231.18 289.317 231.418 289.555 231.7 289.73L249.15 299.8C249.7 300.11 250.15 299.89 250.15 299.3C250.123 298.969 250.018 298.649 249.844 298.366C249.67 298.083 249.433 297.844 249.15 297.67Z" fill="#E0E0E0"/>
<path d="M225.68 284.11L208.23 274C207.69 273.69 207.23 273.91 207.23 274.5C207.258 274.831 207.363 275.151 207.537 275.434C207.71 275.717 207.948 275.955 208.23 276.13L225.68 286.2C226.23 286.51 226.68 286.29 226.68 285.7C226.65 285.375 226.543 285.062 226.37 284.786C226.196 284.51 225.96 284.278 225.68 284.11Z" fill="#E0E0E0"/>
<path d="M202.22 270.55L184.77 260.48C184.22 260.16 183.77 260.39 183.77 260.97C183.796 261.303 183.9 261.625 184.074 261.91C184.247 262.195 184.486 262.435 184.77 262.61L202.22 272.68C202.76 272.99 203.22 272.77 203.22 272.18C203.194 271.849 203.09 271.528 202.916 271.245C202.742 270.961 202.504 270.723 202.22 270.55Z" fill="#E0E0E0"/>
<path d="M288.7 119.37C278.49 113.48 270.22 118.25 270.22 130.04C270.22 141.83 278.49 156.14 288.7 162.04C298.91 167.94 307.17 163.16 307.17 151.38C307.17 139.6 298.9 125.26 288.7 119.37Z" fill="#FAFAFA"/>
<path d="M288.7 128.64C285.39 126.73 282.7 128.28 282.7 132.1C282.814 134.18 283.416 136.204 284.459 138.007C285.501 139.811 286.954 141.343 288.7 142.48C292.01 144.39 294.7 142.84 294.7 139.02C294.587 136.94 293.985 134.916 292.942 133.112C291.9 131.308 290.446 129.776 288.7 128.64Z" fill="#E0E0E0"/>
<path d="M277 149C277 142.72 281.41 140.18 286.85 143.32L290.25 145.32C295.69 148.46 300.1 156.1 300.1 162.38V164.07C296.95 165.07 293 164.54 288.69 162.07C283.96 159.149 279.961 155.185 277 150.48V149Z" fill="#E0E0E0"/>
<path d="M299.63 192.38L274.07 177.62C272.99 176.99 272.07 177.44 272.07 178.62C272.121 179.283 272.33 179.924 272.677 180.491C273.025 181.058 273.502 181.534 274.07 181.88L299.63 196.64C300.72 197.27 301.63 196.82 301.63 195.64C301.58 194.977 301.372 194.335 301.025 193.768C300.677 193.201 300.199 192.725 299.63 192.38Z" fill="#F5F5F5"/>
<path d="M380.93 406.68L348.44 265.96L170.57 163.27L203.06 303.98L380.93 406.68Z" fill="#00BCFF"/>
<path opacity="0.1" d="M291.57 355.08V233.13L171.04 163.88L203.06 303.98L291.57 355.08Z" fill="black"/>
<path d="M260.92 372.79L291.57 355.08L234.49 322.37L260.92 372.79Z" fill="#E0E0E0"/>
<path d="M260.92 372.79C261.467 372.418 261.918 371.923 262.238 371.345C262.557 370.766 262.736 370.121 262.76 369.46V152.65C262.717 151.966 262.514 151.302 262.167 150.711C261.819 150.12 261.337 149.62 260.76 149.25L124.65 70.6401C124.081 70.2828 123.426 70.0875 122.754 70.0753C122.082 70.0631 121.42 70.2345 120.839 70.571C120.257 70.9075 119.779 71.3963 119.455 71.9847C119.131 72.5732 118.974 73.2389 119 73.9101V290.71C119.041 291.395 119.244 292.059 119.591 292.65C119.939 293.241 120.422 293.742 121 294.11L257.11 372.72C257.695 373.029 258.345 373.196 259.007 373.208C259.668 373.221 260.324 373.077 260.92 372.79Z" fill="#EBEBEB"/>
<path d="M259.08 156.77L203.78 120.59L207.47 118.46L260.8 149.25C261.377 149.62 261.859 150.12 262.207 150.711C262.554 151.302 262.757 151.966 262.8 152.65V154.65L259.08 156.77Z" fill="#455A64"/>
<path d="M240.65 163.15L262.19 150.72C262.541 151.304 262.738 151.969 262.76 152.65V369.46C262.785 370.13 262.626 370.795 262.301 371.382C261.976 371.969 261.498 372.456 260.917 372.791C260.336 373.127 259.674 373.297 259.003 373.285C258.333 373.272 257.678 373.077 257.11 372.72L240.65 363.21V163.15Z" fill="#263238"/>
<path d="M257.11 372.72L121 294.11C120.422 293.742 119.939 293.241 119.592 292.65C119.244 292.059 119.041 291.395 119 290.71V73.9101C119 72.6501 119.88 72.1501 121 72.7701L257.11 151.38C257.689 151.747 258.173 152.247 258.521 152.839C258.869 153.43 259.071 154.095 259.11 154.78V371.58C259.08 372.84 258.2 373.34 257.11 372.72Z" fill="#37474F"/>
<path d="M247.78 204.86L215.09 186C212.92 184.75 211.16 185.64 211.16 188C211.258 189.32 211.664 190.599 212.347 191.733C213.03 192.868 213.969 193.826 215.09 194.53L247.78 213.4C249.95 214.65 251.71 213.76 251.71 211.4C251.617 210.077 251.212 208.795 250.529 207.659C249.846 206.522 248.904 205.563 247.78 204.86Z" fill="#E0E0E0"/>
<path d="M250.13 239.36L245.9 236.92C245.04 236.42 244.33 236.83 244.33 237.83V242.71C244.361 243.256 244.519 243.787 244.792 244.261C245.064 244.735 245.444 245.139 245.9 245.44L250.13 247.88C251 248.38 251.7 247.97 251.7 246.97V242.09C251.672 241.543 251.515 241.011 251.242 240.537C250.97 240.062 250.588 239.659 250.13 239.36Z" fill="#00BCFF"/>
<path d="M238.68 234.88L213.12 220.12C212.04 219.5 211.12 219.94 211.12 221.12C211.174 221.782 211.383 222.423 211.73 222.989C212.078 223.555 212.554 224.032 213.12 224.38L238.68 239.14C239.77 239.76 240.68 239.32 240.68 238.14C240.627 237.478 240.418 236.837 240.07 236.27C239.723 235.704 239.246 235.228 238.68 234.88Z" fill="#E0E0E0"/>
<path d="M250.13 256.39L245.9 254C245.04 253.5 244.33 253.9 244.33 254.91V259.79C244.361 260.335 244.519 260.864 244.792 261.337C245.064 261.809 245.444 262.211 245.9 262.51L250.13 264.95C251 265.45 251.7 265.05 251.7 264.05V259.16C251.679 258.606 251.526 258.066 251.253 257.584C250.979 257.102 250.594 256.692 250.13 256.39Z" fill="#00BCFF"/>
<path d="M238.68 251.91L213.12 237.15C212.04 236.52 211.12 236.97 211.12 238.15C211.172 238.814 211.381 239.456 211.728 240.025C212.076 240.593 212.553 241.071 213.12 241.42L238.68 256.17C239.77 256.8 240.68 256.36 240.68 255.17C240.63 254.507 240.422 253.865 240.075 253.298C239.727 252.731 239.249 252.255 238.68 251.91Z" fill="#E0E0E0"/>
<path d="M250.13 273.42L245.9 271C245.04 270.5 244.33 270.91 244.33 271.91V276.79C244.359 277.336 244.517 277.868 244.79 278.342C245.062 278.816 245.443 279.22 245.9 279.52L250.13 281.96C251 282.46 251.7 282.05 251.7 281.05V276.17C251.676 275.62 251.521 275.083 251.248 274.605C250.975 274.127 250.592 273.72 250.13 273.42Z" fill="#00BCFF"/>
<path d="M238.68 268.93L213.12 254.17C212.04 253.55 211.12 253.99 211.12 255.17C211.173 255.833 211.382 256.473 211.729 257.04C212.077 257.606 212.553 258.083 213.12 258.43L238.68 273.19C239.77 273.82 240.68 273.37 240.68 272.19C240.627 271.528 240.418 270.887 240.07 270.32C239.723 269.754 239.246 269.278 238.68 268.93Z" fill="#E0E0E0"/>
<path d="M250.13 290.49L245.9 288C245.04 287.5 244.33 287.91 244.33 288.91V293.8C244.361 294.345 244.519 294.874 244.792 295.347C245.064 295.819 245.444 296.221 245.9 296.52L250.13 299C251 299.5 251.7 299.09 251.7 298.09V293.21C251.671 292.665 251.514 292.134 251.241 291.662C250.968 291.189 250.588 290.787 250.13 290.49Z" fill="#00BCFF"/>
<path d="M238.68 286L213.12 271.25C212.04 270.62 211.12 271.06 211.12 272.25C211.173 272.913 211.382 273.553 211.729 274.12C212.077 274.686 212.553 275.163 213.12 275.51L238.68 290.27C239.77 290.9 240.68 290.45 240.68 289.27C240.628 288.606 240.42 287.963 240.073 287.395C239.725 286.827 239.248 286.349 238.68 286Z" fill="#E0E0E0"/>
<path d="M249.74 326.08L231.55 315.58C230.47 314.96 229.55 315.4 229.55 316.58C229.604 317.242 229.813 317.883 230.161 318.449C230.508 319.015 230.984 319.492 231.55 319.84L249.74 330.34C250.82 330.97 251.74 330.52 251.74 329.34C251.686 328.678 251.477 328.038 251.129 327.471C250.782 326.905 250.306 326.428 249.74 326.08Z" fill="#E0E0E0"/>
<path d="M249.74 334.6L213.12 313.45C212.04 312.83 211.12 313.27 211.12 314.45C211.174 315.112 211.383 315.753 211.731 316.319C212.078 316.885 212.554 317.362 213.12 317.71L249.74 338.85C250.82 339.48 251.74 339.03 251.74 337.85C251.687 337.189 251.478 336.55 251.13 335.985C250.783 335.42 250.306 334.945 249.74 334.6Z" fill="#FAFAFA"/>
<path d="M249.74 334.6L224.18 319.84C223.09 319.21 222.18 319.66 222.18 320.84C222.232 321.504 222.44 322.147 222.787 322.715C223.135 323.284 223.612 323.762 224.18 324.11L249.74 338.86C250.82 339.49 251.74 339.04 251.74 337.86C251.688 337.197 251.48 336.556 251.133 335.989C250.785 335.423 250.308 334.946 249.74 334.6Z" fill="#00BCFF"/>
<path d="M249.74 343.1L231.55 332.6C230.47 331.97 229.55 332.42 229.55 333.6C229.602 334.264 229.811 334.906 230.158 335.475C230.506 336.043 230.983 336.521 231.55 336.87L249.74 347.37C250.82 347.99 251.74 347.55 251.74 346.37C251.688 345.706 251.479 345.064 251.132 344.496C250.784 343.927 250.307 343.449 249.74 343.1Z" fill="#E0E0E0"/>
<path d="M249.74 309.07L231.55 298.57C230.47 297.94 229.55 298.39 229.55 299.57C229.601 300.233 229.81 300.874 230.157 301.441C230.505 302.008 230.982 302.484 231.55 302.83L249.74 313.33C250.82 313.96 251.74 313.52 251.74 312.33C251.688 311.667 251.48 311.026 251.133 310.459C250.785 309.893 250.308 309.416 249.74 309.07Z" fill="#E0E0E0"/>
<path d="M249.74 317.58L213.12 296.44C212.04 295.81 211.12 296.26 211.12 297.44C211.172 298.103 211.38 298.744 211.727 299.311C212.075 299.878 212.552 300.354 213.12 300.7L249.74 321.85C250.82 322.47 251.74 322.03 251.74 320.85C251.688 320.186 251.479 319.544 251.132 318.975C250.784 318.407 250.307 317.929 249.74 317.58Z" fill="#FAFAFA"/>
<path d="M249.74 317.58L236.74 310.08C235.66 309.46 234.74 309.9 234.74 311.08C234.794 311.742 235.003 312.383 235.351 312.949C235.698 313.515 236.174 313.992 236.74 314.34L249.74 321.84C250.82 322.46 251.74 322.02 251.74 320.84C251.686 320.178 251.477 319.538 251.129 318.971C250.782 318.405 250.306 317.928 249.74 317.58Z" fill="#00BCFF"/>
<path d="M249.74 351.61L213.12 330.47C212.04 329.84 211.12 330.29 211.12 331.47C211.174 332.132 211.383 332.773 211.731 333.339C212.078 333.905 212.554 334.382 213.12 334.73L249.74 355.87C250.82 356.5 251.74 356.05 251.74 354.87C251.686 354.208 251.477 353.567 251.129 353.001C250.782 352.435 250.306 351.958 249.74 351.61Z" fill="#FAFAFA"/>
<path d="M249.74 351.61L216.81 332.61C215.72 331.98 214.81 332.43 214.81 333.61C214.862 334.274 215.07 334.917 215.417 335.485C215.765 336.054 216.242 336.532 216.81 336.88L249.74 355.88C250.82 356.51 251.74 356.06 251.74 354.88C251.688 354.216 251.479 353.574 251.132 353.006C250.784 352.437 250.307 351.959 249.74 351.61Z" fill="#00BCFF"/>
<path d="M121 72.7701L203.81 120.59V341.93L121 294.11C120.422 293.742 119.939 293.241 119.591 292.65C119.244 292.059 119.041 291.395 119 290.71V73.9101C119 72.6501 119.88 72.1501 121 72.7701Z" fill="#FAFAFA"/>
<path d="M203.78 129.1V146.13L211.16 154.64H203.79L203.78 171.67L126.37 126.97V84.41L203.78 129.1Z" fill="#00BCFF"/>
<path d="M193.66 129.69L162.3 111.59C160.78 110.71 159.55 111.42 159.55 113.18C159.592 114.144 159.863 115.085 160.341 115.923C160.819 116.762 161.491 117.474 162.3 118L193.66 136.11C195.18 136.99 196.41 136.28 196.41 134.52C196.369 133.554 196.098 132.612 195.619 131.772C195.141 130.932 194.469 130.219 193.66 129.69Z" fill="#FAFAFA"/>
<path d="M195.43 143.43L134.73 108.43C134.18 108.11 133.73 108.34 133.73 108.92C133.755 109.253 133.859 109.575 134.033 109.86C134.206 110.146 134.445 110.385 134.73 110.56L195.43 145.56C195.97 145.87 196.43 145.65 196.43 145.06C196.402 144.729 196.297 144.41 196.123 144.126C195.95 143.843 195.712 143.605 195.43 143.43Z" fill="#FAFAFA"/>
<path d="M195.43 149.82L134.73 114.82C134.18 114.51 133.73 114.73 133.73 115.32C133.753 115.652 133.856 115.974 134.03 116.257C134.205 116.541 134.444 116.779 134.73 116.95L195.43 151.95C195.97 152.26 196.43 152.04 196.43 151.45C196.404 151.119 196.3 150.798 196.126 150.515C195.952 150.231 195.714 149.993 195.43 149.82Z" fill="#FAFAFA"/>
<path d="M195.43 156.2L134.73 121.2C134.18 120.88 133.73 121.11 133.73 121.69C133.753 122.022 133.856 122.344 134.03 122.627C134.205 122.911 134.444 123.149 134.73 123.32L195.43 158.37C195.97 158.68 196.43 158.46 196.43 157.87C196.408 157.532 196.306 157.205 196.132 156.914C195.958 156.624 195.717 156.379 195.43 156.2Z" fill="#FAFAFA"/>
<path d="M193.14 174.06L188.91 171.61C188.05 171.11 187.34 171.52 187.34 172.52V177.4C187.369 177.946 187.527 178.478 187.8 178.952C188.072 179.426 188.453 179.83 188.91 180.13L193.14 182.57C194.01 183.07 194.71 182.66 194.71 181.66V176.78C194.681 176.235 194.524 175.704 194.251 175.232C193.978 174.759 193.598 174.357 193.14 174.06Z" fill="#00BCFF"/>
<path d="M181.69 169.57L156.13 154.81C155.04 154.19 154.13 154.63 154.13 155.81C154.181 156.473 154.39 157.114 154.737 157.681C155.085 158.248 155.562 158.724 156.13 159.07L181.69 173.83C182.78 174.45 183.69 174.01 183.69 172.83C183.637 172.168 183.428 171.527 183.08 170.961C182.733 170.394 182.256 169.918 181.69 169.57Z" fill="#455A64"/>
<path d="M193.73 189.3L129.34 152.12C128.8 151.81 128.34 152.03 128.34 152.62C128.366 152.951 128.47 153.272 128.644 153.555C128.818 153.839 129.056 154.077 129.34 154.25L193.73 191.43C194.27 191.74 194.73 191.52 194.73 190.93C194.702 190.599 194.597 190.28 194.423 189.997C194.25 189.713 194.012 189.475 193.73 189.3Z" fill="#455A64"/>
<path d="M193.73 195.69L129.34 158.51C128.8 158.19 128.34 158.41 128.34 159C128.366 159.331 128.47 159.652 128.644 159.935C128.818 160.219 129.056 160.457 129.34 160.63L193.73 197.81C194.27 198.13 194.73 197.91 194.73 197.32C194.704 196.989 194.6 196.668 194.426 196.385C194.252 196.101 194.014 195.863 193.73 195.69Z" fill="#455A64"/>
<path d="M193.73 202.07L129.34 164.89C128.8 164.58 128.34 164.8 128.34 165.39C128.368 165.721 128.473 166.041 128.647 166.324C128.82 166.607 129.058 166.845 129.34 167.02L193.73 204.2C194.27 204.51 194.73 204.29 194.73 203.7C194.704 203.369 194.6 203.048 194.426 202.765C194.252 202.481 194.014 202.243 193.73 202.07Z" fill="#455A64"/>
<path d="M193.73 208.47L129.34 171.29C128.8 170.98 128.34 171.2 128.34 171.79C128.366 172.122 128.47 172.442 128.644 172.726C128.818 173.009 129.056 173.247 129.34 173.42L193.73 210.6C194.27 210.92 194.73 210.69 194.73 210.11C194.703 209.777 194.599 209.456 194.425 209.171C194.252 208.886 194.013 208.646 193.73 208.47Z" fill="#455A64"/>
<path d="M193.14 220.88L188.91 218.44C188.05 217.94 187.34 218.34 187.34 219.34V224.23C187.371 224.775 187.529 225.304 187.802 225.777C188.074 226.249 188.454 226.651 188.91 226.95L193.14 229.39C194.01 229.89 194.71 229.49 194.71 228.48V223.6C194.681 223.055 194.524 222.524 194.251 222.052C193.978 221.579 193.598 221.178 193.14 220.88Z" fill="#00BCFF"/>
<path d="M181.69 216.39L156.13 201.64C155.04 201.01 154.13 201.46 154.13 202.64C154.179 203.304 154.386 203.946 154.734 204.513C155.082 205.08 155.561 205.556 156.13 205.9L181.69 220.66C182.78 221.29 183.69 220.84 183.69 219.66C183.638 218.996 183.43 218.353 183.083 217.785C182.735 217.217 182.258 216.739 181.69 216.39Z" fill="#455A64"/>
<path d="M193.73 236.12L129.34 198.94C128.8 198.63 128.34 198.85 128.34 199.44C128.366 199.772 128.47 200.092 128.644 200.376C128.818 200.659 129.056 200.897 129.34 201.07L193.73 238.25C194.27 238.57 194.73 238.34 194.73 237.76C194.703 237.428 194.599 237.106 194.425 236.821C194.252 236.536 194.013 236.296 193.73 236.12Z" fill="#455A64"/>
<path d="M193.73 242.51L129.34 205.33C128.8 205.01 128.34 205.24 128.34 205.82C128.367 206.153 128.471 206.474 128.645 206.759C128.818 207.044 129.056 207.284 129.34 207.46L193.73 244.64C194.27 244.95 194.73 244.73 194.73 244.14C194.704 243.809 194.6 243.488 194.426 243.205C194.252 242.921 194.014 242.683 193.73 242.51Z" fill="#455A64"/>
<path d="M193.73 248.89L129.34 211.71C128.8 211.4 128.34 211.62 128.34 212.21C128.366 212.542 128.47 212.862 128.644 213.146C128.818 213.429 129.056 213.667 129.34 213.84L193.73 251C194.27 251.32 194.73 251.09 194.73 250.5C194.699 250.173 194.592 249.857 194.419 249.578C194.245 249.298 194.01 249.063 193.73 248.89Z" fill="#455A64"/>
<path d="M193.73 255.3L129.34 218.12C128.8 217.8 128.34 218.02 128.34 218.61C128.366 218.942 128.47 219.262 128.644 219.546C128.818 219.829 129.056 220.067 129.34 220.24L193.73 257.42C194.27 257.74 194.73 257.52 194.73 256.93C194.704 256.599 194.6 256.278 194.426 255.995C194.252 255.711 194.014 255.473 193.73 255.3Z" fill="#455A64"/>
<path d="M187.12 264.63L182.89 262.19C182.02 261.69 181.32 262.1 181.32 263.1V268C181.349 268.545 181.506 269.076 181.779 269.548C182.051 270.021 182.432 270.423 182.89 270.72L187.12 273.17C187.99 273.67 188.69 273.26 188.69 272.26V267.37C188.664 266.821 188.509 266.287 188.236 265.81C187.963 265.334 187.58 264.929 187.12 264.63Z" fill="#00BCFF"/>
<path d="M193.73 281.22L176.28 271.15C175.74 270.83 175.28 271.06 175.28 271.64C175.306 271.972 175.41 272.292 175.584 272.576C175.758 272.859 175.996 273.097 176.28 273.27L193.73 283.35C194.27 283.66 194.73 283.44 194.73 282.85C194.704 282.519 194.6 282.198 194.426 281.915C194.252 281.631 194.014 281.393 193.73 281.22Z" fill="#455A64"/>
<path d="M163.65 251.07L159.42 248.63C158.55 248.13 157.85 248.53 157.85 249.54V254.42C157.879 254.965 158.036 255.496 158.309 255.968C158.581 256.441 158.962 256.843 159.42 257.14L163.65 259.58C164.52 260.09 165.22 259.68 165.22 258.68V253.79C165.191 253.245 165.034 252.714 164.761 252.242C164.488 251.769 164.108 251.367 163.65 251.07Z" fill="#00BCFF"/>
<path d="M170.26 267.66L152.81 257.59C152.27 257.27 151.81 257.5 151.81 258.08C151.836 258.412 151.94 258.732 152.114 259.016C152.288 259.299 152.526 259.537 152.81 259.71L170.26 269.79C170.8 270.1 171.26 269.88 171.26 269.29C171.234 268.959 171.13 268.638 170.956 268.355C170.782 268.071 170.544 267.833 170.26 267.66Z" fill="#455A64"/>
<path d="M140.18 237.51L135.95 235.07C135.08 234.57 134.38 234.97 134.38 235.98V240.86C134.409 241.405 134.566 241.936 134.839 242.408C135.111 242.881 135.492 243.283 135.95 243.58L140.18 246C141.05 246.5 141.75 246.1 141.75 245.1V240.21C141.718 239.668 141.56 239.142 141.287 238.673C141.014 238.204 140.635 237.806 140.18 237.51Z" fill="#00BCFF"/>
<path d="M146.79 254.1L129.34 244C128.8 243.68 128.34 243.9 128.34 244.49C128.366 244.821 128.47 245.142 128.644 245.425C128.818 245.709 129.056 245.947 129.34 246.12L146.79 256.2C147.33 256.51 147.79 256.29 147.79 255.7C147.76 255.374 147.653 255.059 147.48 254.781C147.306 254.504 147.07 254.27 146.79 254.1Z" fill="#455A64"/>
<path d="M193.73 285.38L176.28 275.3C175.74 274.99 175.28 275.21 175.28 275.8C175.306 276.131 175.41 276.452 175.584 276.735C175.758 277.019 175.996 277.257 176.28 277.43L193.73 287.5C194.27 287.82 194.73 287.6 194.73 287.01C194.704 286.679 194.6 286.358 194.426 286.075C194.252 285.791 194.014 285.553 193.73 285.38Z" fill="#455A64"/>
<path d="M170.26 271.82L152.81 261.74C152.27 261.43 151.81 261.65 151.81 262.24C151.836 262.572 151.94 262.892 152.114 263.176C152.288 263.459 152.526 263.697 152.81 263.87L170.26 273.94C170.8 274.26 171.26 274.03 171.26 273.45C171.234 273.119 171.13 272.798 170.956 272.515C170.782 272.231 170.544 271.993 170.26 271.82Z" fill="#455A64"/>
<path d="M146.79 258.25L129.34 248.18C128.8 247.87 128.34 248.09 128.34 248.68C128.366 249.012 128.47 249.332 128.644 249.616C128.818 249.899 129.056 250.137 129.34 250.31L146.79 260.38C147.33 260.7 147.79 260.47 147.79 259.89C147.763 259.558 147.659 259.236 147.485 258.951C147.312 258.666 147.074 258.426 146.79 258.25Z" fill="#455A64"/>
<path d="M193.73 289.53L176.28 279.46C175.74 279.15 175.28 279.37 175.28 279.96C175.308 280.291 175.413 280.611 175.587 280.894C175.76 281.177 175.998 281.415 176.28 281.59L193.73 291.66C194.27 291.97 194.73 291.75 194.73 291.16C194.702 290.829 194.597 290.51 194.423 290.227C194.25 289.944 194.012 289.705 193.73 289.53Z" fill="#455A64"/>
<path d="M170.26 276L152.81 265.93C152.27 265.62 151.81 265.84 151.81 266.43C151.838 266.761 151.943 267.081 152.117 267.364C152.29 267.647 152.528 267.885 152.81 268.06L170.26 278.1C170.8 278.41 171.26 278.19 171.26 277.6C171.228 277.274 171.121 276.96 170.948 276.683C170.774 276.405 170.539 276.171 170.26 276Z" fill="#455A64"/>
<path d="M146.79 262.41L129.34 252.34C128.8 252.02 128.34 252.25 128.34 252.83C128.367 253.163 128.471 253.484 128.645 253.769C128.818 254.054 129.057 254.294 129.34 254.47L146.79 264.54C147.33 264.85 147.79 264.63 147.79 264.04C147.764 263.709 147.66 263.388 147.486 263.105C147.312 262.821 147.074 262.583 146.79 262.41Z" fill="#455A64"/>
<path d="M187.12 299.59L182.89 297.14C182.02 296.64 181.32 297.05 181.32 298.05V302.94C181.349 303.485 181.506 304.016 181.779 304.488C182.051 304.961 182.432 305.363 182.89 305.66L187.12 308.1C187.99 308.6 188.69 308.19 188.69 307.19V302.31C188.661 301.765 188.504 301.234 188.231 300.762C187.958 300.289 187.578 299.887 187.12 299.59Z" fill="#00BCFF"/>
<path d="M193.73 316.17L176.28 306.1C175.74 305.79 175.28 306.01 175.28 306.6C175.306 306.931 175.41 307.252 175.584 307.535C175.758 307.819 175.996 308.057 176.28 308.23L193.73 318.3C194.27 318.62 194.73 318.39 194.73 317.81C194.703 317.477 194.599 317.156 194.425 316.871C194.252 316.586 194.013 316.346 193.73 316.17Z" fill="#455A64"/>
<path d="M163.65 286L159.42 283.55C158.55 283.05 157.85 283.46 157.85 284.46V289.34C157.878 289.887 158.035 290.419 158.307 290.894C158.58 291.368 158.962 291.771 159.42 292.07L163.65 294.51C164.52 295.01 165.22 294.6 165.22 293.6V288.72C165.191 288.175 165.034 287.644 164.761 287.172C164.488 286.699 164.108 286.298 163.65 286Z" fill="#00BCFF"/>
<path d="M170.26 302.61L152.81 292.54C152.27 292.23 151.81 292.45 151.81 293.04C151.837 293.371 151.942 293.691 152.116 293.974C152.289 294.257 152.527 294.496 152.81 294.67L170.26 304.74C170.8 305.05 171.26 304.83 171.26 304.24C171.232 303.909 171.127 303.59 170.953 303.307C170.78 303.024 170.542 302.785 170.26 302.61Z" fill="#455A64"/>
<path d="M140.18 272.46L135.95 270.02C135.08 269.52 134.38 269.93 134.38 270.93V275.81C134.409 276.357 134.566 276.889 134.839 277.363C135.111 277.837 135.492 278.241 135.95 278.54L140.18 281C141.05 281.5 141.75 281.09 141.75 280.09V275.21C141.724 274.66 141.569 274.124 141.296 273.646C141.023 273.168 140.641 272.762 140.18 272.46Z" fill="#00BCFF"/>
<path d="M146.79 289.05L129.34 279C128.8 278.69 128.34 278.91 128.34 279.5C128.368 279.831 128.473 280.151 128.647 280.434C128.82 280.717 129.058 280.955 129.34 281.13L146.79 291.2C147.33 291.51 147.79 291.29 147.79 290.7C147.765 290.366 147.661 290.042 147.488 289.755C147.314 289.469 147.075 289.227 146.79 289.05Z" fill="#455A64"/>
<path d="M193.73 320.33L176.28 310.26C175.74 309.94 175.28 310.17 175.28 310.75C175.307 311.083 175.411 311.404 175.585 311.689C175.758 311.974 175.996 312.214 176.28 312.39L193.73 322.46C194.27 322.77 194.73 322.55 194.73 321.96C194.704 321.629 194.6 321.308 194.426 321.025C194.252 320.741 194.014 320.503 193.73 320.33Z" fill="#455A64"/>
<path d="M170.26 306.77L152.81 296.7C152.27 296.38 151.81 296.61 151.81 297.19C151.836 297.522 151.94 297.842 152.114 298.126C152.288 298.409 152.526 298.647 152.81 298.82L170.26 308.9C170.8 309.21 171.26 308.99 171.26 308.4C171.234 308.069 171.13 307.748 170.956 307.465C170.782 307.181 170.544 306.943 170.26 306.77Z" fill="#455A64"/>
<path d="M146.79 293.21L129.34 283.14C128.8 282.82 128.34 283.05 128.34 283.63C128.366 283.962 128.47 284.282 128.644 284.566C128.818 284.849 129.056 285.087 129.34 285.26L146.79 295.34C147.33 295.65 147.79 295.43 147.79 294.84C147.764 294.509 147.66 294.188 147.486 293.905C147.312 293.621 147.074 293.383 146.79 293.21Z" fill="#455A64"/>
<path d="M193.73 324.49L176.28 314.41C175.74 314.1 175.28 314.32 175.28 314.91C175.306 315.242 175.41 315.562 175.584 315.845C175.758 316.129 175.996 316.367 176.28 316.54L193.73 326.62C194.27 326.93 194.73 326.71 194.73 326.12C194.704 325.789 194.6 325.468 194.426 325.185C194.252 324.901 194.014 324.663 193.73 324.49Z" fill="#455A64"/>
<path d="M170.26 310.93L152.81 300.85C152.27 300.54 151.81 300.76 151.81 301.35C151.836 301.681 151.94 302.002 152.114 302.285C152.288 302.569 152.526 302.807 152.81 302.98L170.26 313.05C170.8 313.37 171.26 313.15 171.26 312.56C171.234 312.229 171.13 311.908 170.956 311.625C170.782 311.341 170.544 311.103 170.26 310.93Z" fill="#455A64"/>
<path d="M146.79 297.37L129.34 287.29C128.8 286.98 128.34 287.2 128.34 287.79C128.366 288.122 128.47 288.442 128.644 288.726C128.818 289.009 129.056 289.247 129.34 289.42L146.79 299.49C147.33 299.81 147.79 299.58 147.79 299C147.764 298.669 147.66 298.348 147.486 298.065C147.312 297.781 147.074 297.543 146.79 297.37Z" fill="#455A64"/>
<path d="M233.27 146.18C223.07 140.29 214.8 145.07 214.8 156.85C214.8 168.63 223.07 182.96 233.27 188.85C243.47 194.74 251.75 189.96 251.75 178.18C251.75 166.4 243.48 152.07 233.27 146.18Z" fill="#E0E0E0"/>
<path d="M233.27 155.46C229.96 153.54 227.27 155.09 227.27 158.92C227.383 161 227.985 163.024 229.028 164.828C230.07 166.632 231.524 168.164 233.27 169.3C236.58 171.21 239.27 169.66 239.27 165.84C239.157 163.76 238.555 161.736 237.512 159.932C236.47 158.128 235.016 156.596 233.27 155.46Z" fill="#FAFAFA"/>
<path d="M221.59 175.84C221.59 169.56 226 167.01 231.44 170.15L234.84 172.15C240.28 175.29 244.68 182.93 244.68 189.21V190.9C241.54 191.9 237.58 191.38 233.27 188.9C228.545 185.989 224.55 182.035 221.59 177.34V175.84Z" fill="#FAFAFA"/>
<path d="M244.21 219.19L218.65 204.43C217.57 203.81 216.65 204.25 216.65 205.43C216.704 206.092 216.913 206.733 217.26 207.299C217.608 207.865 218.084 208.342 218.65 208.69L244.21 223.45C245.3 224.07 246.21 223.63 246.21 222.45C246.157 221.788 245.948 221.147 245.6 220.581C245.253 220.014 244.776 219.538 244.21 219.19Z" fill="#E0E0E0"/>
</svg>
