<svg xmlns="http://www.w3.org/2000/svg" width="116" height="116" viewBox="0 0 116 116" fill="none">
  <path d="M31.7349 109.802H84.3136C93.9265 109.802 98.8784 104.85 98.8784 95.0429V21.0055C98.8784 11.2472 93.9265 6.19812 84.3136 6.19812H31.7349C22.0736 6.19812 17.1216 11.2472 17.1216 21.0055V95.0429C17.1216 104.85 22.0736 109.802 31.7349 109.802ZM32.0748 102.034C27.4141 102.034 24.9381 99.4609 24.9381 94.9458V21.1027C24.9381 16.5389 27.4141 14.0145 32.1233 14.0145H83.8767C88.5859 14.0145 91.0619 16.5389 91.0619 21.1027V94.9458C91.0619 99.4609 88.5859 102.034 83.9252 102.034H32.0748ZM70.0402 55.524C75.9632 55.524 80.0413 51.4945 80.0413 45.6199C80.0413 39.9396 76.5457 36.2013 71.3995 36.2013C68.8265 36.2013 66.6903 37.0268 65.1852 38.8716H64.2143C64.6027 37.1724 65.6707 35.4732 67.273 34.1137C68.7779 32.7058 70.7198 31.8321 72.9046 31.3465C74.7009 30.9581 75.2349 30.3756 75.2349 29.3074C75.2349 28.3365 74.5066 27.5597 73.1473 27.5597C69.9917 27.5597 65.9622 29.5502 63.3404 32.3661C60.6216 35.3276 59.2623 39.163 59.2623 43.2411C59.2623 51.0089 64.0687 55.524 70.0402 55.524ZM45.4258 55.5725C51.3489 55.5725 55.4269 51.5429 55.4269 45.6684C55.4269 39.9883 51.9313 36.25 46.7853 36.25C44.2122 36.25 42.0759 37.0753 40.6195 38.9201H39.5999C39.9883 37.1724 41.105 35.4247 42.804 34.0653C44.3578 32.7545 46.1541 31.8321 48.2902 31.3952C50.0865 31.0066 50.669 30.4241 50.669 29.3561C50.669 28.385 49.9409 27.6082 48.533 27.6082C45.3771 27.6082 41.4447 29.5017 38.726 32.4145C36.0072 35.3761 34.648 39.2115 34.648 43.2895C34.648 51.0574 39.4543 55.5725 45.4258 55.5725ZM38.9688 71.9335H75.8176C77.5168 71.9335 78.8276 70.6227 78.8276 68.9235C78.8276 67.2727 77.5168 65.962 75.8176 65.962H38.9688C37.2209 65.962 35.9588 67.2727 35.9588 68.9235C35.9588 70.6227 37.2209 71.9335 38.9688 71.9335ZM38.9688 88.8771H56.4464C58.1456 88.8771 59.408 87.615 59.408 85.9156C59.408 84.2164 58.1456 82.9056 56.4464 82.9056H38.9688C37.2209 82.9056 35.9588 84.2164 35.9588 85.9156C35.9588 87.615 37.2209 88.8771 38.9688 88.8771Z" fill="black"/>
</svg>