<svg xmlns="http://www.w3.org/2000/svg" viewBox="0 0 1767.55 2628"><defs><style>.cls-1{fill:#010101;}.cls-2{fill:#030303;}</style></defs><title>Asset 2</title><g id="Layer_2" data-name="Layer 2"><g id="Layer_1-2" data-name="Layer 1"><path d="M51.49,1050.17q11.49,426,216,651.32c4.55,5,9.18,10,13.8,14.78Zm884.23,507.4q-112.22,0-193-45L864.4,1940q11.28.21,22.76.21,8.05,0,16-.1l111.45-391.62Q978.39,1557.57,935.72,1557.57Zm719-331.83-169,487.22q166.07-175.7,231-487.22ZM1483.11,179.45Q1300.28.05,921,0,470.64,0,247.21,298,108,482.7,67.51,757.47H252.08v-1.13H428.92c5.64-36.88,24.07-67,54.73-89.63,21.25-15.67,43.73-25.66,65.5-35.33l11-4.91c11.86-5.18,23-10.09,32.75-15.91,2.58-1.55,3.57-4.52,3.92-6.18a13.85,13.85,0,0,0-1.94-10.76c-6.28-9.18-10.8-18.53-14.58-26.61a177.17,177.17,0,0,1-6.6-16.9c-3.17-9.11-4.72-13.06-7.48-15.53-21.7-19.48-28-53.78-15-81.91-.28-1.45-.88-3.67-1.34-5.4l-.28-1c-11-41.82-4.31-84.34,18.81-119.7,24.59-37.59,66.27-63.46,114.3-71,7-1.1,13.73-1.8,20.89-2.54,3.25-.32,6.64-.67,10.27-1.1l22.76-2.61c28.84-41,74.64-68.32,130.61-77.57,3.25-.53,6.22-.81,8.62-1,1.34-.14,3.21-.28,3.81-.42A86.59,86.59,0,0,1,902.37,167c24.57,0,43.52,12.92,52.87,35.18,35.36,6.71,63.8,27,82,58.23,6-3.38,14-5.82,24.38-5.89a104.76,104.76,0,0,0,17-1.55,78.47,78.47,0,0,1,13.38-1.24c21.38,0,38.43,10.77,47.08,28.94,28.33,6.14,60.77,25.2,76.93,77,9.1,29.25,10.48,55.9,4.2,81.48-3,12.14-3.32,17.12-1.55,23.12,8.61,29.78-.15,59.46-22.31,78.34-1.69,6.32-3.56,12.28-5.68,18a498.72,498.72,0,0,1,32.75,72.91c1.09.45,2.19.84,3.28,1.27,12.39,4.76,25.23,9.67,38,16,30,14.82,51.45,37.12,63.66,65.67h388.37Q1645.65,338.61,1483.11,179.45Z"/><path d="M1337.71,792.76a49.21,49.21,0,0,1-11.22,19.94c-13.44,14.4-31.69,16.45-44.25,16.69-3.78.07-7.52.11-11.29.11-3,0-12.25,0-13.87-.07l-1.17.21L883.78,2137,511.6,829.53h-4.8c-7.69,0-15.35,0-23-.21-18.56-.35-33.14-6.28-43.27-17.61a49,49,0,0,1-10.55-19H0L633.21,2628H1131l636.6-1835.24Z"/><path class="cls-1" d="M884,844.56q-138.42,0-276.86,0c-22.66,0-28-7.2-22.26-29.53,7.95-31.12,26.62-54.42,52.55-72.51,29.7-20.72,64-31.85,96.82-45.92,6.46-2.77,13.08-5.2,19.45-8.16,50.18-23.33,65.51-54.27,54.06-108.53a14.46,14.46,0,0,0-4.08-7.42C786,554,777.23,531.31,772,506.85c-1-4.42-1.71-8.39-6.16-11.87-25.43-19.83-31.1-46.4-15.71-74,2.72-4.87,2.56-8.2.85-12.82C717,316.24,766.08,224.25,873,206.63c5.21-.86,10.63-.79,15.68-2.16,18.34-5,32-2.21,36.43,19.27,1.75,8.45,8,11,16.57,12,34.61,4.11,58.23,23.61,71.46,55.26,16.22,38.79,19.71,78.3,3.28,118.15-1.53,3.68-2.93,6-.27,10.71,14.95,26.8,8.48,56.38-16.26,75.82-3.9,3.06-4.35,6.35-5.33,10.25-6.19,24.53-12.88,48.89-31.63,67.5-3.51,3.48-2.69,7.54-2.69,11.51,0,10.57,1.19,21.25.15,31.71-3.16,31.77,13.84,50.64,39.54,64.41,29.58,15.86,61.77,25.7,92.12,39.78,44.14,20.5,81,47.9,92.18,99.07,4.26,19.46.29,24.55-19.84,24.56Q1024.17,844.64,884,844.56Z"/><path class="cls-2" d="M1253.29,794.15c-28,6.71-43.76-3.62-57-30.2-18.47-37-54.29-57.52-91.13-74.22q-42.42-19.22-85.75-36.38C988,641,990,609.6,1001.25,580.57c.63-1.62,1.84-3,2.65-4.57,15-28.82,26.27-59.29,44-87.07,13-20.42,14.71-45.69,6.57-69.92a22.17,22.17,0,0,1-.31-13.51c8.82-34.29,8.19-68.71-1.05-102.73-2.56-9.43-1.16-12.88,8.74-12.94a140.54,140.54,0,0,0,22.79-2.06c12.63-2.18,21.82.15,24.68,14.57,1.36,6.86,5.57,10.71,13.39,11.46,33.25,3.21,50.42,24.9,59.61,54.38,6.36,20.4,8.81,41.44,3.63,62.59-3.37,13.76-5.58,26.16-1.19,41.32,4.55,15.74.82,34.4-15.87,45.06-5.06,3.23-4.9,7.76-6,11.92-4.42,17.22-10.82,33.22-21.7,47.66s-3,49.14,13.18,61.82c14.14,11,31.18,16,47.52,22.47,15.81,6.25,32,11.85,47.15,19.37,36.63,18.15,53.88,49.1,55.8,89.21.89,18.67-4.42,24.12-23.36,24.51C1272.1,794.31,1262.69,794.15,1253.29,794.15Z"/><path class="cls-2" d="M717.85,287c-14,41.23-15.21,80.49-3.11,119.81,1.21,4-.58,6.75-1.59,10-11.33,36.71-4.52,69.58,21.62,97.87a32.2,32.2,0,0,1,7.41,13.45c4.78,15.73,9.5,31.9,19.67,44.92s11.24,26.91,11.86,42.54c.72,18.23-7.25,27.88-22.17,35.68-27.12,14.2-56.3,23.4-84,36-47.11,21.48-88.3,49.34-109,99.58-2.52,6.13-6.52,7.32-12.32,7.26-20.58-.18-41.17.24-61.75-.17-17.05-.35-23.18-7.44-21.63-24.58,2.8-31,16.6-55.81,41.77-74.37,19.09-14.08,40.62-23.36,62.08-32.91,15-6.68,30.34-13,44.36-21.36,22.64-13.56,27.94-45.31,13-67.16-4.6-6.72-8.26-14.17-11.72-21.58-6.9-14.78-8.5-31.2-22.47-43.76-10.75-9.65-12.74-28-6.32-41.44,5.34-11.22,2.85-19.61.22-29.6-18.33-69.64,28.1-134.9,104.39-146.8C697.25,289.06,706.51,288.33,717.85,287Z"/></g></g></svg>