<svg xmlns="http://www.w3.org/2000/svg" width="88" height="88" viewBox="0 0 88 88" fill="none">
  <g clip-path="url(#clip0_7_178)">
    <path d="M44 88C21.6334 88 3.66669 70.0333 3.66669 47.6667C3.66669 26.7667 19.8 9.53333 40.3334 7.33333V0H44C59.0334 0 72.9667 6.96667 82.1333 19.0667L84.3334 22L78.4667 26.4C82.1333 33 84.3334 39.9667 84.3334 47.6667C84.3334 70.0333 66.3667 88 44 88ZM40.3334 15.0333C23.8334 16.8667 11 30.8 11 47.6667C11 66 25.6667 80.6667 44 80.6667C62.3334 80.6667 77 66 77 47.6667C77 41.8 75.5333 35.9333 72.6 30.8L40.3334 55V15.0333ZM47.6667 7.33333V40.3333L74.0667 20.5333C67.1 13.2 57.5667 8.43333 47.6667 7.33333Z" fill="black"/>
  </g>
  <defs>
    <clipPath id="clip0_7_178">
      <rect width="88" height="88" fill="white"/>
    </clipPath>
  </defs>
</svg>