<svg xmlns="http://www.w3.org/2000/svg" width="120" height="120" viewBox="0 0 120 120" fill="none">
  <path fill-rule="evenodd" clip-rule="evenodd" d="M97.5 60C97.5 80.7105 80.7105 97.5 60 97.5C39.2893 97.5 22.5 80.7105 22.5 60C22.5 39.2893 39.2893 22.5 60 22.5C80.7105 22.5 97.5 39.2893 97.5 60ZM105 60C105 84.853 84.853 105 60 105C35.1472 105 15 84.853 15 60C15 35.1472 35.1472 15 60 15C84.853 15 105 35.1472 105 60ZM46.875 52.5C49.9816 52.5 52.5 49.9816 52.5 46.875C52.5 43.7684 49.9816 41.25 46.875 41.25C43.7684 41.25 41.25 43.7684 41.25 46.875C41.25 49.9816 43.7684 52.5 46.875 52.5ZM78.75 46.875C78.75 49.9816 76.2315 52.5 73.125 52.5C70.0185 52.5 67.5 49.9816 67.5 46.875C67.5 43.7684 70.0185 41.25 73.125 41.25C76.2315 41.25 78.75 43.7684 78.75 46.875ZM60 75C50.8915 75 45 69.2255 45 63.75H37.5C37.5 74.843 48.3977 82.5 60 82.5C71.6025 82.5 82.5 74.843 82.5 63.75H75C75 69.2255 69.1085 75 60 75Z" fill="black"/>
</svg>