<svg xmlns="http://www.w3.org/2000/svg" width="142" height="142" viewBox="0 0 142 142" fill="none">
  <path d="M107.083 51.0453C106.696 61.0726 102.903 70.6685 96.3283 78.2495C94.3814 80.4188 92.8964 82.9616 91.9637 85.7232V93.4734C91.9637 95.3565 91.2156 97.1624 89.8841 98.4939C88.5526 99.8254 86.7467 100.573 84.8637 100.573H57.1363C55.2533 100.573 53.4474 99.8254 52.1159 98.4939C50.7843 97.1624 50.0363 95.3565 50.0363 93.4734V85.7232C49.1032 82.9618 47.6182 80.4191 45.6717 78.2495C39.0918 70.6705 35.2929 61.0744 34.9021 51.0453C34.9019 42.7143 37.7833 34.6397 43.0576 28.1909C48.3319 21.7421 55.6745 17.3161 63.84 15.6637C72.0055 14.0112 80.4912 15.234 87.8579 19.1246C95.2246 23.0152 101.019 29.3342 104.258 37.0097C106.141 41.4543 107.107 46.2333 107.098 51.0603L107.083 51.0453ZM99.9829 51.0453C99.9829 43.3586 96.9294 35.9866 91.494 30.5513C86.0587 25.1159 78.6867 22.0624 71 22.0624C63.3132 22.0624 55.9413 25.1159 50.506 30.5513C45.0706 35.9866 42.017 43.3586 42.017 51.0453C42.017 68.7056 57.1363 76.5231 57.1363 85.7232V93.4734H84.8637V85.7232C84.8637 76.5231 99.9829 68.7056 99.9829 51.0453ZM88.4137 108.907C88.4147 109.373 88.3236 109.836 88.1456 110.267C87.9676 110.699 87.7063 111.091 87.3766 111.422C87.0468 111.752 86.6551 112.014 86.2239 112.193C85.7927 112.372 85.3305 112.464 84.8637 112.464H57.1363C56.1948 112.464 55.2918 112.09 54.6261 111.424C53.9603 110.759 53.5863 109.856 53.5863 108.914C53.5863 107.973 53.9603 107.07 54.6261 106.404C55.2918 105.738 56.1948 105.364 57.1363 105.364H84.8637C85.8039 105.364 86.7057 105.737 87.3713 106.401C88.0368 107.065 88.4117 107.966 88.4137 108.907ZM83.6305 118.338C83.7514 118.688 83.7603 119.067 83.6558 119.422C83.5513 119.777 83.3387 120.09 83.0476 120.319C79.5482 123.036 75.2437 124.511 70.8131 124.511C66.3826 124.511 62.0781 123.036 58.5787 120.319C58.2848 120.093 58.0691 119.781 57.9618 119.427C57.8546 119.072 57.8612 118.693 57.9809 118.342C58.1005 117.991 58.3271 117.687 58.6287 117.472C58.9304 117.257 59.2919 117.142 59.6624 117.143H81.9564C82.3262 117.142 82.6869 117.257 82.9883 117.472C83.2897 117.686 83.5093 117.989 83.6305 118.338Z" fill="black"/>
</svg>