<svg xmlns="http://www.w3.org/2000/svg" width="95" height="95" viewBox="0 0 95 95" fill="none">
  <path fill-rule="evenodd" clip-rule="evenodd" d="M77.7793 3.16494C73.1635 -2.88883 63.3701 0.322311 63.3701 7.88947V15.4878C48.4385 15.3111 38.2242 20.4437 31.4205 27.6115C24.1472 35.2739 21.1556 44.8535 19.902 51.4037C19.2753 54.6784 21.4234 57.0546 23.681 57.8752C25.8377 58.6589 28.7197 58.3233 30.6429 56.1248C36.1014 49.8857 46.7064 41.1777 63.3701 41.7462V51.4856C63.3701 59.0528 73.1635 62.2638 77.7793 56.2099L92.5985 36.7743C95.8004 32.5747 95.8004 26.8003 92.5985 22.6007L77.7793 3.16494ZM29.6163 45.9543C36.7619 39.7183 47.0191 33.8662 63.3701 33.8662H67.3736C69.5843 33.8662 71.3763 35.6291 71.3763 37.8035L71.3755 51.4856L86.1943 32.0498C87.2619 30.6499 87.2619 28.7251 86.1943 27.3252L71.3755 7.88947V19.425C71.3755 21.5994 69.5835 23.3621 67.3728 23.3621H63.3701C45.3597 23.3621 37.2715 32.9853 37.2715 32.9853C33.5478 36.9082 31.1515 41.5704 29.6163 45.9543Z" fill="#0F0F0F"/>
  <path d="M27.7083 3.97375H15.8333C9.27497 3.97375 3.95834 9.29035 3.95834 15.8488V79.1821C3.95834 85.7406 9.27497 91.0571 15.8333 91.0571H79.1667C85.7252 91.0571 91.0417 85.7406 91.0417 79.1821V67.3071C91.0417 65.1209 89.2695 63.3487 87.0833 63.3487C84.8971 63.3487 83.125 65.1209 83.125 67.3071V79.1821C83.125 81.3682 81.3529 83.1404 79.1667 83.1404H15.8333C13.6472 83.1404 11.875 81.3682 11.875 79.1821V15.8488C11.875 13.6626 13.6472 11.8904 15.8333 11.8904H27.7083C29.8944 11.8904 31.6667 10.1182 31.6667 7.93209C31.6667 5.74594 29.8944 3.97375 27.7083 3.97375Z" fill="#0F0F0F"/>
</svg>