<svg xmlns="http://www.w3.org/2000/svg" width="54" height="54" viewBox="0 0 54 54" fill="none">
  <g clip-path="url(#clip0_7_282)">
    <path d="M41.8068 0H12.1932C5.4591 0 0 5.48438 0 12.2497V41.7503C0 48.5156 5.4591 54 12.1932 54H41.8068C48.5409 54 54 48.5156 54 41.7503V12.2497C54 5.48438 48.5409 0 41.8068 0Z" fill="black"/>
    <path d="M34.1444 15.7188H37.954L29.6314 25.2761L39.4221 38.2802H31.7556L25.7512 30.3938L18.88 38.2802H15.0683L23.9699 28.0585L14.5779 15.7188H22.4385L27.8659 22.9281L34.1444 15.7188ZM32.8071 35.9894H34.9186L21.292 17.8898H19.0266L32.8071 35.9894Z" fill="white"/>
  </g>
  <defs>
    <clipPath id="clip0_7_282">
      <rect width="54" height="54" fill="white"/>
    </clipPath>
  </defs>
</svg>